# Blender v2.75 (sub 0) OBJ File: ''
# www.blender.org
mtllib Wooden Sign.mtl
o n0b0
v 1.199876 0.043100 -0.868980
v 0.460678 0.043100 -1.406039
v -0.453021 0.043100 -1.406039
v -0.453021 0.043100 -1.406039
v -1.192220 0.043100 -0.868980
v -1.474569 0.043100 0.000000
v -1.192220 0.043100 0.868980
v -0.453021 0.043100 1.406039
v 0.460678 0.043100 1.406039
v 1.199877 0.043100 0.868980
v 1.482225 0.043100 0.000000
v 1.068693 0.608236 -0.773669
v 0.410570 0.608236 -1.251823
v -0.402914 0.608236 -1.251823
v -0.402914 0.608236 -1.251823
v -1.061036 0.608236 -0.773669
v -1.312416 0.280296 0.000000
v -1.312416 0.280296 0.000000
v -1.061036 0.608236 0.773669
v -0.402914 0.608236 1.251823
v 0.410570 0.608236 1.251823
v 1.068693 0.608236 0.773669
v 1.320073 0.280296 0.000000
v 1.320073 0.280296 0.000000
v 1.098499 0.966694 -0.794599
v 1.098499 0.966694 -0.794599
v 0.422572 0.966694 -1.285688
v 0.422572 0.966694 -1.285688
v -0.412918 0.966694 -1.285688
v -0.412918 0.966694 -1.285688
v -0.412918 0.966694 -1.285688
v -1.088845 0.966694 -0.794599
v -1.088845 0.966694 -0.794599
v -1.258912 0.966694 -0.169066
v -1.258912 0.966694 -0.169066
v -1.088845 0.848034 0.794599
v -1.088845 0.848034 0.794599
v -0.412918 0.848034 1.285688
v -0.412918 0.848034 1.285688
v 0.422573 0.848034 1.285688
v 0.422573 0.848034 1.285688
v 1.098499 0.848034 0.794599
v 1.098499 0.848034 0.794599
v 1.265225 0.966694 -0.158953
v 1.265225 0.966694 -0.158953
v -1.370134 0.848034 0.128386
v -1.370134 0.848034 0.128386
v 1.338834 0.848034 0.161780
v 1.338834 0.848034 0.161780
v -0.168328 0.397526 0.168328
v 0.168328 0.397526 0.168328
v -0.257756 7.297555 0.200799
v -0.257756 7.297555 0.200799
v 0.257756 7.297555 0.200799
v 0.257756 7.297555 0.200799
v -0.257756 7.297555 -0.200799
v -0.257756 7.297555 -0.200799
v -0.257756 7.297555 -0.200799
v 0.257756 7.297555 -0.200799
v 0.257756 7.297555 -0.200799
v -0.168328 0.424779 -0.149579
v -0.168328 0.424779 -0.149579
v 0.168328 0.441115 -0.168328
v -2.100742 4.491680 0.679481
v 2.231274 4.529815 0.679481
v -2.435231 6.589737 0.679481
v 2.481376 7.012535 0.679481
v -2.435231 6.589737 0.193076
v 2.481376 7.012535 0.193076
v -2.100742 4.491680 0.193076
v 2.231274 4.529815 0.193076
v 2.430328 5.840243 0.679481
v 2.477412 6.233238 0.679481
v 2.477412 6.233238 0.193076
v 2.430328 5.840243 0.193076
v 1.474596 5.975638 0.679481
v 1.487065 5.975637 0.193076
v 1.774936 4.394008 0.679481
v -1.815665 4.371096 0.679481
v 2.020709 2.659901 0.679481
v -1.830613 2.572344 0.679481
v 2.020709 2.659901 0.193076
v -1.830613 2.572344 0.193076
v 1.774936 4.394008 0.193076
v -1.815665 4.371096 0.193076
v -1.774936 4.394008 -0.679481
v 1.815665 4.371096 -0.679481
v -2.020709 2.659901 -0.679481
v 1.830613 2.572344 -0.679481
v -2.020709 2.659901 -0.193076
v 1.830613 2.572344 -0.193076
v -1.774936 4.394008 -0.193076
v 1.815665 4.371096 -0.193076
v 2.100742 4.491680 -0.679481
v -2.231274 4.529815 -0.679481
v 2.435231 6.766796 -0.679481
v -2.306006 7.073839 -0.679481
v 2.435231 6.766796 -0.193076
v -2.306006 7.073839 -0.193076
v 2.100742 4.491680 -0.193076
v -2.231274 4.529815 -0.193076
v -2.298246 5.900280 -0.679481
v -2.345331 6.141961 -0.679481
v -2.345331 6.141961 -0.193076
v -2.298246 5.900280 -0.193076
v -1.474596 6.006721 -0.679481
v -1.487065 6.006720 -0.193076
vt 0.403412 0.315735
vt 0.602905 0.478638
vt 0.426544 0.478638
vt 0.603119 0.389984
vt 0.403412 0.271729
vt 0.603058 0.271729
vt 0.597595 0.315735
vt 0.401459 0.489288
vt 0.558411 0.489288
vt 0.401642 0.389984
vt 0.597595 0.271729
vt 0.401581 0.271729
vt 0.016602 0.395233
vt 0.204498 0.271729
vt 0.016479 0.271729
vt 0.204590 0.395233
vt 0.016266 0.489288
vt 0.204285 0.489288
vt 0.203766 0.271729
vt 0.203705 0.395233
vt 0.361023 0.489288
vt 0.203918 0.489288
vt 0.016174 0.271729
vt 0.016083 0.395233
vt 0.016388 0.489288
vt 0.848755 0.607574
vt 0.344269 0.520477
vt 0.623138 0.520477
vt 0.118652 0.607574
vt 0.928986 0.724823
vt 0.024750 0.730743
vt 0.118652 0.889465
vt 0.623138 0.976562
vt 0.344269 0.976562
vt 0.848755 0.889465
vt 0.061859 0.778564
vt 0.904419 0.776764
vt 0.801605 0.395233
vt 0.801514 0.271729
vt 0.801300 0.478638
vt 0.983032 0.395233
vt 0.982941 0.271729
vt 0.982697 0.478638
vt 0.793549 0.395233
vt 0.793610 0.271729
vt 0.793732 0.478638
vt 0.628723 0.478638
vt 0.512817 0.567261
vt 0.617889 0.833099
vt 0.512573 1.000458
vt 0.643921 0.805511
vt 0.632599 0.529907
vt 0.618225 0.832947
vt 0.648865 0.975311
vt 0.646057 0.845703
vt 0.237122 0.622162
vt 0.766968 0.868134
vt 0.237122 0.870422
vt 0.764709 0.626678
vt 0.883789 0.748505
vt 0.082947 0.748505
vt 0.930511 0.955658
vt 0.494781 0.980835
vt 0.495575 0.547607
vt 0.878479 0.510254
vt 0.248962 0.235901
vt 0.653320 0.053131
vt 0.253357 0.044952
vt 0.628845 0.248291
vt 0.245819 0.235901
vt 0.716919 0.061462
vt 0.250214 0.051422
vt 0.708923 0.227661
vt 0.622009 0.248291
vt 0.646484 0.053131
vn -0.906400 -0.178700 0.382700
vn -0.923200 -0.138400 0.358600
vn -0.825200 0.564100 0.029000
vn -0.917500 0.263300 0.298100
vn 0.967100 0.018500 -0.253700
vn 0.933600 -0.097800 -0.344800
vn 0.825200 0.564100 -0.029000
vn 0.917500 0.263300 -0.298100
vn 0.000000 0.263300 -0.964700
vn 0.000000 -0.094100 -0.995600
vn 0.567100 0.263300 -0.780500
vn 0.585100 -0.095700 -0.805300
vn -0.797300 0.545100 -0.259100
vn -0.946400 0.253400 -0.200100
vn -0.950800 -0.002200 -0.309900
vn -0.961100 -0.089800 -0.261300
vn -0.567100 0.263300 -0.780500
vn -0.585300 -0.092400 -0.805600
vn 0.000000 1.000000 0.000000
vn -0.567100 0.263300 0.780500
vn -0.582200 -0.137500 0.801300
vn 0.000000 0.263300 0.964700
vn 0.000000 -0.139800 0.990200
vn 0.567100 0.263300 0.780500
vn 0.581800 -0.142200 0.800800
vn 0.797300 0.545100 0.259100
vn 0.946400 0.253400 0.200100
vn 0.924900 -0.132200 0.356500
vn 0.924900 -0.145600 0.351300
vn -0.000000 -0.000000 -1.000000
vn 0.000000 0.000000 1.000000
vn 0.988700 -0.150200 0.000000
vn -0.987500 -0.157400 0.000000
vn 1.000000 -0.005100 0.000000
vn -0.000000 0.220600 -0.975400
vn 0.011900 0.273700 -0.961800
vn 0.000000 0.225600 0.974200
vn -0.003900 0.239400 0.970900
vn -0.130100 0.991500 0.000000
vn -0.128200 0.991700 -0.003300
vn -0.999100 0.042200 0.000000
vn 0.989400 -0.145500 0.000000
vn -0.998800 -0.048800 0.000000
vn -0.022700 -0.999700 0.000000
vn 0.008800 -1.000000 0.000000
vn -0.085700 0.996300 0.000000
vn -0.155700 -0.987800 -0.004000
vn -0.153500 -0.988200 0.000000
vn 0.064600 0.997900 0.000000
vn -0.008800 -1.000000 0.000000
vn 0.142100 0.989900 0.000000
vn 0.140300 0.990100 0.003600
vn -0.999900 -0.013000 -0.001100
vn -0.999900 -0.013000 0.000000
vn 0.999900 -0.013000 -0.001700
vn 0.999900 -0.013000 0.000000
vn 0.000000 -0.004700 -1.000000
vn -0.055200 -0.008200 -0.998400
vn 0.000000 -0.004700 1.000000
vn 0.251700 -0.967800 0.006500
vn 0.248800 -0.968600 0.000000
vn 0.990100 0.140300 0.000000
vn -1.000000 0.008300 0.000000
vn -0.006400 1.000000 0.000000
vn 0.022700 -0.999700 0.000000
vn -0.990100 0.140300 0.000000
vn 1.000000 0.008300 0.000000
vn 0.006400 1.000000 0.000000
usemtl m0
s off
f 17/1/1 36/2/1 46/3/1
f 36/2/2 17/1/2 19/4/2
f 6/5/3 19/4/3 17/1/3
f 19/4/4 6/5/4 7/6/4
f 23/7/5 25/8/5 44/9/5
f 25/8/6 23/7/6 12/10/6
f 11/11/7 12/10/7 23/7/7
f 1/12/8 12/10/8 11/11/8
f 14/13/9 2/14/9 3/15/9
f 2/14/9 14/13/9 13/16/9
f 29/17/10 13/16/10 14/13/10
f 13/16/10 29/17/10 27/18/10
f 13/16/11 1/12/11 2/14/11
f 1/12/11 13/16/11 12/10/11
f 27/18/12 12/10/12 13/16/12
f 12/10/12 27/18/12 25/8/12
f 17/1/13 5/19/13 6/5/13
f 5/19/14 17/1/14 16/20/14
f 34/21/15 16/20/15 17/1/15
f 16/20/16 34/21/16 32/22/16
f 16/20/17 4/23/17 5/19/17
f 4/23/17 16/20/17 15/24/17
f 32/22/18 15/24/18 16/20/18
f 15/24/18 32/22/18 30/25/18
f 43/26/19 39/27/19 41/28/19
f 39/27/19 43/26/19 37/29/19
f 49/30/19 37/29/19 43/26/19
f 37/29/19 49/30/19 47/31/19
f 33/32/19 28/33/19 31/34/19
f 28/33/19 33/32/19 26/35/19
f 35/36/19 26/35/19 33/32/19
f 26/35/19 35/36/19 45/37/19
f 20/38/20 7/6/20 8/39/20
f 7/6/20 20/38/20 19/4/20
f 38/40/21 19/4/21 20/38/21
f 19/4/21 38/40/21 36/2/21
f 21/41/22 8/39/22 9/42/22
f 8/39/22 21/41/22 20/38/22
f 40/43/23 20/38/23 21/41/23
f 20/38/23 40/43/23 38/40/23
f 22/44/24 9/42/24 10/45/24
f 9/42/24 22/44/24 21/41/24
f 42/46/25 21/41/25 22/44/25
f 21/41/25 42/46/25 40/43/25
f 23/7/26 10/45/26 11/11/26
f 10/45/27 23/7/27 22/44/27
f 48/47/28 22/44/28 23/7/28
f 22/44/29 48/47/29 42/46/29
f 94/48/30 106/49/30 96/50/30
f 106/49/30 94/48/30 102/51/30
f 95/52/30 102/51/30 94/48/30
f 76/49/31 65/52/31 72/51/31
f 65/52/31 76/49/31 64/48/31
f 66/50/31 64/48/31 76/49/31
f 77/53/30 69/54/30 74/55/30
f 69/54/30 77/53/30 68/50/30
f 70/48/30 68/50/30 77/53/30
f 59/56/19 53/57/19 55/58/19
f 53/57/19 59/56/19 56/59/19
f 75/51/32 65/52/32 71/52/32
f 65/52/32 75/51/32 72/51/32
f 66/50/33 70/48/33 64/48/33
f 70/48/33 66/50/33 68/50/33
f 69/54/34 73/55/34 74/55/34
f 73/55/34 69/54/34 67/54/34
f 47/31/35 24/60/35 18/61/35
f 24/60/36 47/31/36 49/30/36
f 45/37/37 18/61/37 24/60/37
f 18/61/38 45/37/38 35/36/38
f 107/53/39 102/51/39 105/51/39
f 102/51/40 107/53/40 106/49/40
f 99/54/41 103/55/41 104/55/41
f 103/55/41 99/54/41 97/54/41
f 96/50/42 100/48/42 94/48/42
f 100/48/42 96/50/42 98/50/42
f 105/51/43 95/52/43 101/52/43
f 95/52/43 105/51/43 102/51/43
f 89/62/44 90/63/44 88/63/44
f 90/63/44 89/62/44 91/62/44
f 86/64/30 89/62/30 88/63/30
f 89/62/30 86/64/30 87/65/30
f 93/65/31 90/63/31 91/62/31
f 90/63/31 93/65/31 92/64/31
f 77/53/30 71/52/30 70/48/30
f 71/52/30 77/53/30 75/51/30
f 76/49/31 67/54/31 66/50/31
f 67/54/31 76/49/31 73/55/31
f 65/52/45 70/48/45 71/52/45
f 70/48/45 65/52/45 64/48/45
f 66/50/46 69/54/46 68/50/46
f 69/54/46 66/50/46 67/54/46
f 101/52/31 107/53/31 105/51/31
f 107/53/31 101/52/31 100/48/31
f 98/50/31 107/53/31 100/48/31
f 107/53/31 98/50/31 99/54/31
f 104/55/47 106/49/47 107/53/47
f 106/49/48 104/55/48 103/55/48
f 97/54/30 106/49/30 103/55/30
f 106/49/30 97/54/30 96/50/30
f 96/50/49 99/54/49 98/50/49
f 99/54/49 96/50/49 97/54/49
f 95/52/50 100/48/50 101/52/50
f 100/48/50 95/52/50 94/48/50
f 77/53/51 72/51/51 75/51/51
f 72/51/52 77/53/52 76/49/52
f 52/66/53 62/67/53 50/68/53
f 62/67/54 52/66/54 58/69/54
f 60/70/55 51/71/55 63/72/55
f 51/71/56 60/70/56 54/73/56
f 63/72/57 57/74/57 60/70/57
f 57/74/58 63/72/58 61/75/58
f 54/73/59 50/68/59 51/71/59
f 50/68/59 54/73/59 52/66/59
f 74/55/60 76/49/60 77/53/60
f 76/49/61 74/55/61 73/55/61
f 80/63/62 84/64/62 78/64/62
f 84/64/62 80/63/62 82/63/62
f 85/65/63 81/62/63 79/65/63
f 81/62/63 85/65/63 83/62/63
f 84/64/64 79/65/64 78/64/64
f 79/65/64 84/64/64 85/65/64
f 85/65/30 82/63/30 83/62/30
f 82/63/30 85/65/30 84/64/30
f 78/64/31 81/62/31 80/63/31
f 81/62/31 78/64/31 79/65/31
f 81/62/65 82/63/65 80/63/65
f 82/63/65 81/62/65 83/62/65
f 88/63/66 92/64/66 86/64/66
f 92/64/66 88/63/66 90/63/66
f 93/65/67 89/62/67 87/65/67
f 89/62/67 93/65/67 91/62/67
f 92/64/68 87/65/68 86/64/68
f 87/65/68 92/64/68 93/65/68
f 107/53/31 99/54/31 104/55/31
