# Blender v2.80 (sub 75) OBJ File: 'Treasure Chest.blend'
# www.blender.org
mtllib animChest.mtl
o model361_material
v 0.376866 0.000923 0.376837
v 0.422787 0.464170 0.404542
v -0.364283 0.000235 0.381820
v -0.410684 0.463397 0.410145
v 0.304666 0.025006 0.317162
v 0.302624 0.026023 0.013780
v -0.292937 0.024451 0.321180
v -0.294977 0.025468 0.017798
v 0.419580 0.465768 -0.072104
v 0.374015 0.002344 -0.047011
v -0.413893 0.464994 -0.066500
v -0.367135 0.001656 -0.042027
v 0.345409 0.464320 0.339241
v -0.334193 0.463689 0.343810
v 0.343087 0.465476 -0.005769
v -0.336513 0.464845 -0.001199
vt 1.595963 -0.551946
vt 1.383980 -0.551946
vt 1.595963 -0.951915
vt 1.383980 -0.951915
vt 0.659950 -1.910892
vt 0.825966 -1.910892
vt 0.659950 -1.597923
vt 0.825966 -1.597923
vt 1.383980 -0.950930
vt 1.595963 -0.950930
vt 1.383980 -0.550961
vt 1.595963 -0.550961
vt 0.622986 -1.954974
vt 0.873955 -1.954974
vt 0.622986 -1.554915
vt 0.873955 -1.554915
vt 1.383980 -0.312986
vt 1.595963 -0.312986
vt 1.595963 -0.312986
vt 1.383980 -0.312986
vt 1.832970 -0.018923
vt 1.633957 -0.018923
vt 1.832970 -0.342912
vt 1.633957 -0.342912
vt 1.832970 0.657011
vt 1.630981 0.657011
vt 1.832970 0.480053
vt 1.630981 0.480053
vt 1.832970 0.981000
vt 1.630981 0.981000
vt 1.832970 -0.520945
vt 1.633957 -0.520945
vt 1.655968 -0.919929
vt 1.620949 -0.952901
vt 1.832970 -0.919929
vt 1.872986 -0.952901
vt 1.832970 -0.588951
vt 1.872986 -0.551946
vt 1.655968 -0.588951
vt 1.620949 -0.551946
vn 0.5521 -0.6194 0.5581
vn 0.6077 0.5347 0.5871
vn -0.5434 -0.6204 0.5655
vn -0.6008 0.5336 0.5952
vn -0.5538 0.6153 -0.5610
vn -0.5461 0.6114 0.5726
vn 0.5451 0.6163 -0.5684
vn 0.5527 0.6124 0.5652
vn 0.5998 0.5388 -0.5915
vn 0.5445 -0.6156 -0.5697
vn -0.6088 0.5376 -0.5834
vn -0.5510 -0.6166 -0.5623
vn -0.2857 0.9194 -0.2704
vn 0.2803 0.9199 -0.2742
vn -0.2821 0.9175 0.2804
vn 0.2841 0.9180 0.2766
usemtl material362_Chest.png
s 1
f 1/1/1 2/2/2 3/3/3
f 3/3/3 2/2/2 4/4/4
f 5/5/5 6/6/6 7/7/7
f 7/7/7 6/6/6 8/8/8
f 9/9/9 10/10/10 11/11/11
f 11/11/11 10/10/10 12/12/12
f 10/13/10 1/14/1 12/15/12
f 12/15/12 1/14/1 3/16/3
f 9/17/9 1/1/1 10/18/10
f 2/2/2 1/1/1 9/17/9
f 3/19/3 4/20/4 12/12/12
f 12/12/12 4/20/4 11/11/11
f 13/21/13 5/22/5 14/23/14
f 14/23/14 5/22/5 7/24/7
f 15/25/15 6/26/6 13/27/13
f 13/27/13 6/26/6 5/28/5
f 16/29/16 8/30/8 15/25/15
f 15/25/15 8/30/8 6/26/6
f 14/23/14 7/24/7 16/31/16
f 16/31/16 7/24/7 8/32/8
f 13/33/13 2/34/2 15/35/15
f 15/35/15 2/34/2 9/36/9
f 15/35/15 9/36/9 16/37/16
f 16/37/16 9/36/9 11/38/11
f 16/37/16 11/38/11 14/39/14
f 14/39/14 11/38/11 4/40/4
f 14/39/14 4/40/4 13/33/13
f 4/40/4 2/34/2 13/33/13
l 3 2
l 2 4
l 4 3
l 5 6
l 6 7
l 7 5
l 9 10
l 10 11
l 11 9
l 12 11
l 10 1
l 12 10
l 12 1
l 1 3
l 9 1
l 9 2
l 2 1
l 12 3
l 12 4
l 13 5
l 14 13
l 14 5
l 15 6
l 13 6
l 16 8
l 8 15
l 8 6
l 14 7
l 7 16
l 7 8
l 13 2
l 15 13
l 15 2
l 15 9
l 9 16
l 16 15
l 11 16
l 14 16
l 14 11
l 11 4
l 4 14
l 4 13
o model361_material361_
v -0.445714 0.431026 -0.093979
v 0.453325 0.433120 -0.094903
v -0.445733 0.457557 -0.058396
v 0.453307 0.457841 -0.058119
v -0.445783 0.917209 -0.363283
v 0.453256 0.917493 -0.363005
v -0.445762 0.893149 -0.401996
v 0.453277 0.892417 -0.401044
v 0.412412 0.454098 -0.196634
v 0.395688 0.482440 -0.317386
v 0.420547 0.474866 -0.120725
v 0.389560 0.558694 -0.405282
v 0.395669 0.669346 -0.441359
v 0.420506 0.852418 -0.372538
v 0.412376 0.791668 -0.420543
v 0.343555 0.830474 -0.307335
v -0.336061 0.830260 -0.307545
v -0.332319 0.776118 -0.388550
v 0.339896 0.776330 -0.388341
v -0.320785 0.673187 -0.406059
v 0.328439 0.673392 -0.405859
v -0.316560 0.578811 -0.374859
v 0.324249 0.582138 -0.370488
v -0.320768 0.513377 -0.300057
v 0.328457 0.513582 -0.299857
v -0.332288 0.489518 -0.198447
v 0.339927 0.489730 -0.198240
v -0.336031 0.542741 -0.116834
v 0.343586 0.542955 -0.116624
v -0.412984 0.852992 -0.373350
v -0.404788 0.791409 -0.420796
v -0.387991 0.669098 -0.441602
v -0.381835 0.558451 -0.405519
v -0.387977 0.492156 -0.303147
v -0.404750 0.453840 -0.196887
v -0.412946 0.473113 -0.119995
vt 0.329990 -0.509960
vt 0.328983 -0.975960
vt 0.352981 -0.509960
vt 0.351993 -0.975960
vt 0.016998 -0.509960
vt 0.017987 -0.975960
vt 0.044986 -0.509960
vt 0.044986 -0.975960
vt 0.044986 -0.485950
vt 0.328983 -0.486958
vt 0.412984 -0.254950
vt 0.461985 -0.204975
vt 0.370993 -0.266955
vt 0.479979 -0.135968
vt 0.461985 -0.067970
vt 0.371981 0.002014
vt 0.412984 -0.017964
vt 0.225983 -0.416974
vt 0.225983 -0.041974
vt 0.258986 -0.041974
vt 0.258986 -0.416974
vt 0.304986 -0.041974
vt 0.304986 -0.416974
vt 0.342986 -0.041974
vt 0.342986 -0.416974
vt 0.300996 -0.041974
vt 0.300996 -0.416974
vt 0.251994 -0.041974
vt 0.251994 -0.416974
vt 0.199990 -0.041974
vt 0.199990 -0.416974
vt 0.596982 -0.194955
vt 0.611992 -0.137954
vt 0.499986 -0.038980
vt 0.596982 -0.080983
vt 0.555980 -0.037972
vt 0.499986 -0.236958
vt 0.555980 -0.237966
vt 0.498979 -0.234972
vt 0.554992 -0.235950
vt 0.498979 -0.037972
vt 0.595976 -0.193978
vt 0.610986 -0.135968
vt 0.595976 -0.078967
vt 0.554992 -0.036964
vt 0.044986 -0.998962
vt 0.328983 -0.998962
vt 0.353988 0.000029
vt 0.353988 -0.479962
vt 0.302991 0.000029
vt 0.302991 -0.479962
vt 0.243995 0.000029
vt 0.243995 -0.479962
vt 0.177988 0.000029
vt 0.177988 -0.479962
vt 0.108998 0.000029
vt 0.108998 -0.479962
vt 0.049983 0.000029
vt 0.049983 -0.479962
vt 0.001000 -0.479962
vt 0.371981 -0.267964
vt 0.413990 -0.255958
vt 0.370993 0.002014
vt 0.462992 -0.205952
vt 0.479979 -0.136976
vt 0.413990 -0.018972
vt 0.462992 -0.068978
vt 0.001000 0.000029
vt 0.115990 -0.882943
vt 0.069990 -0.925954
vt 0.257979 -0.882943
vt 0.296987 -0.925954
vt 0.257979 -0.602946
vt 0.296987 -0.563968
vt 0.115990 -0.602946
vt 0.069990 -0.563968
vt 0.305993 -0.953936
vt 0.066988 -0.953936
vt 0.066988 -0.528960
vt 0.306981 -0.528960
vn -0.5704 -0.8079 -0.1479
vn 0.5741 -0.8014 -0.1675
vn -0.5784 -0.1375 0.8041
vn 0.5759 -0.1565 0.8024
vn -0.5777 0.7969 0.1767
vn 0.5760 0.8002 0.1669
vn -0.5724 0.1656 -0.8030
vn 0.5746 0.1545 -0.8037
vn 0.6759 -0.7349 -0.0545
vn 0.6039 -0.6867 -0.4046
vn 0.1985 -0.7192 -0.6658
vn 0.5798 -0.4563 -0.6749
vn 0.5948 -0.1067 -0.7967
vn 0.2032 -0.3291 -0.9221
vn 0.6332 0.2589 -0.7293
vn -0.3038 0.2521 0.9188
vn 0.3001 0.2634 0.9168
vn 0.6625 -0.3759 0.6479
vn -0.6291 -0.3948 0.6695
vn 0.6318 0.0921 0.7696
vn -0.6105 0.1172 0.7833
vn 0.6056 0.4387 0.6639
vn -0.6171 0.4400 0.6523
vn 0.6124 0.6824 0.3990
vn -0.6284 0.6658 0.4022
vn 0.6291 0.7707 -0.1013
vn -0.6633 0.7425 -0.0931
vn 0.3020 0.7485 0.5903
vn -0.2998 0.7419 0.5997
vn -0.1993 -0.3309 -0.9224
vn -0.6337 0.2539 -0.7307
vn -0.5943 -0.1071 -0.7971
vn -0.5698 -0.5000 -0.6522
vn -0.6118 -0.6860 -0.3938
vn -0.6748 -0.7310 -0.1014
vn -0.1922 -0.7179 -0.6691
usemtl material361_Chest.png
s 1
f 17/41/17 18/42/18 19/43/19
f 19/43/19 18/42/18 20/44/20
f 21/45/21 22/46/22 23/47/23
f 23/47/23 22/46/22 24/48/24
f 23/47/23 17/41/17 21/49/21
f 21/49/21 17/41/17 19/50/19
f 25/51/25 26/52/26 27/53/27
f 27/53/27 26/52/26 28/54/28
f 27/53/27 28/54/28 29/55/29
f 30/56/30 27/53/27 31/57/31
f 31/57/31 27/53/27 29/55/29
f 32/58/32 33/59/33 34/60/34
f 32/58/32 34/60/34 35/61/35
f 35/61/35 34/60/34 36/62/36
f 35/61/35 36/62/36 37/63/37
f 37/63/37 36/62/36 38/64/38
f 37/63/37 38/64/38 39/65/39
f 39/65/39 38/64/38 40/66/40
f 39/65/39 40/66/40 41/67/41
f 41/67/41 40/66/40 42/68/42
f 41/67/41 42/68/42 43/69/43
f 43/69/43 42/68/42 44/70/44
f 43/69/43 44/70/44 45/71/45
f 37/72/37 39/73/39 45/74/45
f 45/74/45 39/73/39 41/75/41
f 45/74/45 41/75/41 43/76/43
f 32/77/32 35/78/35 45/74/45
f 45/74/45 35/78/35 37/72/37
f 44/79/44 42/80/42 33/81/33
f 33/81/33 42/80/42 40/82/40
f 33/81/33 40/82/40 38/83/38
f 38/83/38 36/84/36 33/81/33
f 33/81/33 36/84/36 34/85/34
f 22/86/22 20/87/20 24/48/24
f 24/48/24 20/87/20 18/42/18
f 46/88/46 30/89/30 47/90/47
f 47/90/47 30/89/30 31/91/31
f 47/90/47 31/91/31 48/92/48
f 48/92/48 31/91/31 29/93/29
f 48/92/48 29/93/29 49/94/49
f 49/94/49 29/93/29 28/95/28
f 49/94/49 28/95/28 50/96/50
f 50/96/50 28/95/28 26/97/26
f 50/96/50 26/97/26 51/98/51
f 51/98/51 26/97/26 25/99/25
f 51/98/51 25/99/25 27/100/27
f 46/101/46 47/102/47 52/103/52
f 52/103/52 47/102/47 48/104/48
f 52/103/52 48/104/48 49/105/49
f 51/106/51 52/103/52 50/107/50
f 50/107/50 52/103/52 49/105/49
f 51/98/51 27/100/27 52/108/52
f 45/109/45 20/110/20 32/111/32
f 32/111/32 20/110/20 22/112/22
f 32/111/32 22/112/22 33/113/33
f 33/113/33 22/112/22 21/114/21
f 33/113/33 21/114/21 44/115/44
f 44/115/44 21/114/21 19/116/19
f 44/115/44 19/116/19 45/109/45
f 45/109/45 19/116/19 20/110/20
f 18/42/18 27/117/27 24/48/24
f 24/48/24 27/117/27 30/118/30
f 24/48/24 30/118/30 23/47/23
f 23/47/23 30/118/30 46/119/46
f 46/119/46 17/41/17 23/47/23
f 17/41/17 46/119/46 52/120/52
f 17/41/17 52/120/52 18/42/18
f 18/42/18 52/120/52 27/117/27
l 19 17
l 19 18
l 18 20
l 20 19
l 23 21
l 23 22
l 24 23
l 23 17
l 17 21
l 19 21
l 27 26
l 28 27
l 28 29
l 29 27
l 30 27
l 31 27
l 29 31
l 33 34
l 32 34
l 34 35
l 36 35
l 37 35
l 37 36
l 37 38
l 39 38
l 38 40
l 40 39
l 40 41
l 40 42
l 42 41
l 43 41
l 43 42
l 42 44
l 43 44
l 44 45
l 45 43
l 37 39
l 39 45
l 39 41
l 41 45
l 32 35
l 35 45
l 37 45
l 33 44
l 33 42
l 33 40
l 38 33
l 38 36
l 36 33
l 36 34
l 22 20
l 20 24
l 24 22
l 18 24
l 46 30
l 47 46
l 47 30
l 30 31
l 47 31
l 31 48
l 48 29
l 29 49
l 49 48
l 49 28
l 50 28
l 28 26
l 50 26
l 26 51
l 26 25
l 25 51
l 25 27
l 52 47
l 47 48
l 52 48
l 52 50
l 50 51
l 52 49
l 49 50
l 51 27
l 52 51
l 45 20
l 20 32
l 32 45
l 32 22
l 22 33
l 33 32
l 22 21
l 33 21
l 21 44
l 19 44
l 19 45
l 18 27
l 27 24
l 24 30
l 23 30
l 46 23
l 46 17
l 46 52
l 17 52
l 18 17
l 18 52
l 52 27
