# Blender v2.80 (sub 75) OBJ File: ''
# www.blender.org
mtllib closedChest.mtl
o model361_material
v 0.376866 0.000923 0.376837
v 0.422787 0.464170 0.404542
v -0.364283 0.000235 0.381820
v -0.410684 0.463397 0.410145
v 0.304666 0.025006 0.317162
v 0.302624 0.026023 0.013780
v -0.292937 0.024451 0.321180
v -0.294977 0.025468 0.017798
v 0.419580 0.465768 -0.072104
v 0.374015 0.002344 -0.047011
v -0.413893 0.464994 -0.066500
v -0.367135 0.001656 -0.042027
v 0.345409 0.464320 0.339241
v -0.334193 0.463689 0.343810
v 0.343087 0.465476 -0.005769
v -0.336513 0.464845 -0.001199
v -0.445714 0.495040 -0.107087
v 0.453325 0.494682 -0.104826
v -0.445733 0.450758 -0.104053
v 0.453307 0.450371 -0.103965
v -0.445783 0.458136 0.447473
v 0.453256 0.457748 0.447562
v -0.445762 0.503710 0.448212
v 0.453277 0.503306 0.447082
v 0.412412 0.568843 -0.032097
v 0.395688 0.655005 0.057124
v 0.420547 0.493782 -0.055747
v 0.389560 0.687600 0.168828
v 0.395669 0.658004 0.281387
v 0.420506 0.501004 0.398018
v 0.412376 0.574260 0.372946
v 0.343555 0.458074 0.344259
v -0.336061 0.458367 0.344193
v -0.332319 0.555786 0.342547
v 0.339896 0.555495 0.342612
v -0.320785 0.626248 0.265499
v 0.328439 0.625969 0.265563
v -0.316560 0.651130 0.169264
v 0.324249 0.645654 0.169694
v -0.320768 0.623683 0.073747
v 0.328457 0.623404 0.073811
v -0.332288 0.551185 -0.001339
v 0.339927 0.550896 -0.001273
v -0.336031 0.453752 -0.000795
v 0.343586 0.453460 -0.000728
v -0.412984 0.501376 0.398940
v -0.404788 0.574613 0.372865
v -0.387991 0.658342 0.281310
v -0.381835 0.687931 0.168753
v -0.387977 0.637773 0.057580
v -0.404750 0.569195 -0.032177
v -0.412946 0.494118 -0.057616
vt 1.595963 -0.551946
vt 1.383980 -0.551946
vt 1.595963 -0.951915
vt 1.383980 -0.951915
vt 0.659950 -1.910892
vt 0.825966 -1.910892
vt 0.659950 -1.597923
vt 0.825966 -1.597923
vt 1.383980 -0.950930
vt 1.595963 -0.950930
vt 1.383980 -0.550961
vt 1.595963 -0.550961
vt 0.622986 -1.954974
vt 0.873955 -1.954974
vt 0.622986 -1.554915
vt 0.873955 -1.554915
vt 1.383980 -0.312986
vt 1.595963 -0.312986
vt 1.595963 -0.312986
vt 1.383980 -0.312986
vt 1.832970 -0.018923
vt 1.633957 -0.018923
vt 1.832970 -0.342912
vt 1.633957 -0.342912
vt 1.832970 0.657011
vt 1.630981 0.657011
vt 1.832970 0.480053
vt 1.630981 0.480053
vt 1.832970 0.981000
vt 1.630981 0.981000
vt 1.832970 -0.520945
vt 1.633957 -0.520945
vt 1.655968 -0.919929
vt 1.620949 -0.952901
vt 1.832970 -0.919929
vt 1.872986 -0.952901
vt 1.832970 -0.588951
vt 1.872986 -0.551946
vt 1.655968 -0.588951
vt 1.620949 -0.551946
vt 0.329990 -0.509960
vt 0.328983 -0.975960
vt 0.352981 -0.509960
vt 0.351993 -0.975960
vt 0.016998 -0.509960
vt 0.017987 -0.975960
vt 0.044986 -0.509960
vt 0.044986 -0.975960
vt 0.044986 -0.485950
vt 0.328983 -0.486958
vt 0.412984 -0.254950
vt 0.461985 -0.204975
vt 0.370993 -0.266955
vt 0.479979 -0.135968
vt 0.461985 -0.067970
vt 0.371981 0.002014
vt 0.412984 -0.017964
vt 0.225983 -0.416974
vt 0.225983 -0.041974
vt 0.258986 -0.041974
vt 0.258986 -0.416974
vt 0.304986 -0.041974
vt 0.304986 -0.416974
vt 0.342986 -0.041974
vt 0.342986 -0.416974
vt 0.300996 -0.041974
vt 0.300996 -0.416974
vt 0.251994 -0.041974
vt 0.251994 -0.416974
vt 0.199990 -0.041974
vt 0.199990 -0.416974
vt 0.596982 -0.194955
vt 0.611992 -0.137954
vt 0.499986 -0.038980
vt 0.596982 -0.080983
vt 0.555980 -0.037972
vt 0.499986 -0.236958
vt 0.555980 -0.237966
vt 0.498979 -0.234972
vt 0.554992 -0.235950
vt 0.498979 -0.037972
vt 0.595976 -0.193978
vt 0.610986 -0.135968
vt 0.595976 -0.078967
vt 0.554992 -0.036964
vt 0.044986 -0.998962
vt 0.328983 -0.998962
vt 0.353988 0.000029
vt 0.353988 -0.479962
vt 0.302991 0.000029
vt 0.302991 -0.479962
vt 0.243995 0.000029
vt 0.243995 -0.479962
vt 0.177988 0.000029
vt 0.177988 -0.479962
vt 0.108998 0.000029
vt 0.108998 -0.479962
vt 0.049983 0.000029
vt 0.049983 -0.479962
vt 0.001000 -0.479962
vt 0.371981 -0.267964
vt 0.413990 -0.255958
vt 0.370993 0.002014
vt 0.462992 -0.205952
vt 0.479979 -0.136976
vt 0.413990 -0.018972
vt 0.462992 -0.068978
vt 0.001000 0.000029
vt 0.115990 -0.882943
vt 0.069990 -0.925954
vt 0.257979 -0.882943
vt 0.296987 -0.925954
vt 0.257979 -0.602946
vt 0.296987 -0.563968
vt 0.115990 -0.602946
vt 0.069990 -0.563968
vt 0.305993 -0.953936
vt 0.066988 -0.953936
vt 0.066988 -0.528960
vt 0.306981 -0.528960
vn 0.5521 -0.6194 0.5581
vn 0.6078 0.5348 0.5871
vn -0.5434 -0.6204 0.5655
vn -0.6008 0.5337 0.5952
vn -0.5538 0.6153 -0.5610
vn -0.5462 0.6114 0.5726
vn 0.5451 0.6163 -0.5684
vn 0.5527 0.6124 0.5652
vn 0.5999 0.5388 -0.5915
vn 0.5445 -0.6156 -0.5697
vn -0.6088 0.5377 -0.5834
vn -0.5510 -0.6166 -0.5623
vn -0.2857 0.9194 -0.2704
vn 0.2803 0.9199 -0.2742
vn -0.2821 0.9175 0.2804
vn 0.2841 0.9180 0.2766
vn -0.5704 0.5619 -0.5991
vn 0.5742 0.5749 -0.5830
vn -0.5784 -0.6015 -0.5511
vn 0.5759 -0.5898 -0.5661
vn -0.5777 -0.5801 0.5742
vn 0.5760 -0.5737 0.5823
vn -0.5724 0.5854 0.5741
vn 0.5746 0.5919 0.5652
vn 0.6759 0.4439 -0.5883
vn 0.6039 0.7120 -0.3581
vn 0.1985 0.9492 -0.2441
vn 0.5798 0.8145 -0.0181
vn 0.5948 0.7276 0.3418
vn 0.2032 0.9535 0.2227
vn 0.6332 0.4729 0.6127
vn -0.3038 -0.9089 -0.2856
vn 0.3001 -0.9134 -0.2750
vn 0.6625 -0.3411 -0.6669
vn -0.6291 -0.3490 -0.6946
vn 0.6318 -0.6969 -0.3394
vn -0.6105 -0.7219 -0.3257
vn 0.6056 -0.7957 0.0093
vn -0.6171 -0.7867 0.0166
vn 0.6124 -0.7050 0.3576
vn -0.6284 -0.6987 0.3419
vn 0.6291 -0.3322 0.7027
vn -0.6633 -0.3238 0.6746
vn 0.3020 -0.9017 0.3096
vn -0.2998 -0.9060 0.2990
vn -0.1993 0.9546 0.2213
vn -0.6337 0.4768 0.6092
vn -0.5943 0.7281 0.3417
vn -0.5698 0.8190 -0.0671
vn -0.6118 0.7026 -0.3635
vn -0.6748 0.4812 -0.5596
vn -0.1922 0.9513 -0.2411
usemtl material362_Chest.png
s 1
f 1/1/1 2/2/2 3/3/3
f 3/3/3 2/2/2 4/4/4
f 5/5/5 6/6/6 7/7/7
f 7/7/7 6/6/6 8/8/8
f 9/9/9 10/10/10 11/11/11
f 11/11/11 10/10/10 12/12/12
f 10/13/10 1/14/1 12/15/12
f 12/15/12 1/14/1 3/16/3
f 9/17/9 1/1/1 10/18/10
f 2/2/2 1/1/1 9/17/9
f 3/19/3 4/20/4 12/12/12
f 12/12/12 4/20/4 11/11/11
f 13/21/13 5/22/5 14/23/14
f 14/23/14 5/22/5 7/24/7
f 15/25/15 6/26/6 13/27/13
f 13/27/13 6/26/6 5/28/5
f 16/29/16 8/30/8 15/25/15
f 15/25/15 8/30/8 6/26/6
f 14/23/14 7/24/7 16/31/16
f 16/31/16 7/24/7 8/32/8
f 13/33/13 2/34/2 15/35/15
f 15/35/15 2/34/2 9/36/9
f 15/35/15 9/36/9 16/37/16
f 16/37/16 9/36/9 11/38/11
f 16/37/16 11/38/11 14/39/14
f 14/39/14 11/38/11 4/40/4
f 14/39/14 4/40/4 13/33/13
f 4/40/4 2/34/2 13/33/13
usemtl material361_Chest.png
f 17/41/17 18/42/18 19/43/19
f 19/43/19 18/42/18 20/44/20
f 21/45/21 22/46/22 23/47/23
f 23/47/23 22/46/22 24/48/24
f 23/47/23 17/41/17 21/49/21
f 21/49/21 17/41/17 19/50/19
f 25/51/25 26/52/26 27/53/27
f 27/53/27 26/52/26 28/54/28
f 27/53/27 28/54/28 29/55/29
f 30/56/30 27/53/27 31/57/31
f 31/57/31 27/53/27 29/55/29
f 32/58/32 33/59/33 34/60/34
f 32/58/32 34/60/34 35/61/35
f 35/61/35 34/60/34 36/62/36
f 35/61/35 36/62/36 37/63/37
f 37/63/37 36/62/36 38/64/38
f 37/63/37 38/64/38 39/65/39
f 39/65/39 38/64/38 40/66/40
f 39/65/39 40/66/40 41/67/41
f 41/67/41 40/66/40 42/68/42
f 41/67/41 42/68/42 43/69/43
f 43/69/43 42/68/42 44/70/44
f 43/69/43 44/70/44 45/71/45
f 37/72/37 39/73/39 45/74/45
f 45/74/45 39/73/39 41/75/41
f 45/74/45 41/75/41 43/76/43
f 32/77/32 35/78/35 45/74/45
f 45/74/45 35/78/35 37/72/37
f 44/79/44 42/80/42 33/81/33
f 33/81/33 42/80/42 40/82/40
f 33/81/33 40/82/40 38/83/38
f 38/83/38 36/84/36 33/81/33
f 33/81/33 36/84/36 34/85/34
f 22/86/22 20/87/20 24/48/24
f 24/48/24 20/87/20 18/42/18
f 46/88/46 30/89/30 47/90/47
f 47/90/47 30/89/30 31/91/31
f 47/90/47 31/91/31 48/92/48
f 48/92/48 31/91/31 29/93/29
f 48/92/48 29/93/29 49/94/49
f 49/94/49 29/93/29 28/95/28
f 49/94/49 28/95/28 50/96/50
f 50/96/50 28/95/28 26/97/26
f 50/96/50 26/97/26 51/98/51
f 51/98/51 26/97/26 25/99/25
f 51/98/51 25/99/25 27/100/27
f 46/101/46 47/102/47 52/103/52
f 52/103/52 47/102/47 48/104/48
f 52/103/52 48/104/48 49/105/49
f 51/106/51 52/103/52 50/107/50
f 50/107/50 52/103/52 49/105/49
f 51/98/51 27/100/27 52/108/52
f 45/109/45 20/110/20 32/111/32
f 32/111/32 20/110/20 22/112/22
f 32/111/32 22/112/22 33/113/33
f 33/113/33 22/112/22 21/114/21
f 33/113/33 21/114/21 44/115/44
f 44/115/44 21/114/21 19/116/19
f 44/115/44 19/116/19 45/109/45
f 45/109/45 19/116/19 20/110/20
f 18/42/18 27/117/27 24/48/24
f 24/48/24 27/117/27 30/118/30
f 24/48/24 30/118/30 23/47/23
f 23/47/23 30/118/30 46/119/46
f 46/119/46 17/41/17 23/47/23
f 17/41/17 46/119/46 52/120/52
f 17/41/17 52/120/52 18/42/18
f 18/42/18 52/120/52 27/117/27
